<?xml version="1.0" standalone="no"?>
<!DOCTYPE svg PUBLIC "-//W3C//DTD SVG 20010904//EN"
 "http://www.w3.org/TR/2001/REC-SVG-20010904/DTD/svg10.dtd">
<svg version="1.0" xmlns="http://www.w3.org/2000/svg"
 width="500.000000pt" height="500.000000pt" viewBox="0 0 500.000000 500.000000"
 preserveAspectRatio="xMidYMid meet">
<g transform="translate(0.000000,500.000000) scale(0.100000,-0.100000)"
fill="#000000" stroke="none">
<path d="M3900 4428 c-107 -12 -127 -16 -149 -28 -12 -6 -21 -8 -21 -5 0 3
-13 -1 -30 -10 -16 -8 -33 -16 -37 -17 -5 -1 -22 -7 -40 -15 -18 -7 -35 -13
-39 -13 -9 0 -165 -103 -191 -126 -86 -78 -115 -110 -148 -163 -21 -34 -39
-61 -41 -61 -2 0 -29 7 -61 15 -59 16 -102 25 -138 30 -11 2 -20 4 -20 5 0 4
-86 17 -185 27 -91 10 -481 10 -565 -1 -38 -4 -77 -8 -85 -8 -8 0 -37 -5 -65
-10 -27 -5 -66 -11 -85 -14 -65 -10 -75 -12 -120 -24 -25 -7 -52 -14 -60 -15
-67 -14 -121 -29 -225 -63 l-120 -40 -60 52 c-77 66 -84 71 -240 180 -11 8
-56 40 -100 72 -44 31 -111 73 -149 93 -63 33 -75 36 -155 36 -101 0 -165 -25
-243 -94 -54 -48 -80 -87 -112 -169 -21 -52 -23 -73 -21 -188 3 -130 7 -167
25 -233 5 -20 9 -38 9 -41 0 -13 55 -148 75 -184 16 -28 21 -48 16 -61 -19
-51 66 -258 133 -325 l41 -41 -12 -47 c-16 -59 -66 -158 -141 -275 -75 -119
-104 -182 -87 -196 6 -5 35 -13 63 -16 l51 -7 6 -47 c3 -25 8 -71 11 -102 l6
-56 -77 -12 c-42 -6 -80 -14 -86 -17 -8 -5 -4 -78 7 -144 3 -14 7 -41 10 -60
2 -19 9 -71 16 -115 17 -124 16 -147 -13 -186 -14 -19 -35 -54 -47 -79 -12
-25 -34 -65 -47 -90 -110 -197 -246 -491 -259 -564 -5 -23 -21 -48 -51 -75
l-44 -40 0 -430 0 -431 2500 0 2500 0 0 838 -1 837 -32 39 c-47 57 -112 131
-186 215 -36 40 -67 81 -68 90 -1 9 -4 36 -8 61 -3 25 -8 61 -10 80 -3 19 -7
46 -9 60 -3 14 -8 50 -12 80 -11 98 -13 114 -18 145 -3 17 -7 48 -10 70 -3 22
-8 50 -10 62 -3 12 -7 48 -11 80 -7 72 -14 114 -22 126 -5 9 -69 5 -170 -12
-44 -7 -55 -5 -68 9 -8 9 -15 23 -15 31 0 8 -6 23 -14 34 -13 19 -12 20 24 17
42 -4 110 14 110 29 0 4 -12 16 -27 26 -16 10 -30 20 -33 23 -3 3 -21 17 -40
30 -98 68 -176 167 -240 303 -57 122 -58 130 -16 226 20 45 36 88 36 95 0 12
13 27 60 69 51 44 97 125 118 207 2 8 5 53 7 100 3 94 -10 160 -50 244 -51
108 -173 204 -266 211 -15 1 -33 4 -40 7 -8 2 -43 1 -79 -4z"/>
</g>
</svg>
